<?xml version="1.0" encoding="UTF-8"?>
<!-- Generator: Adobe Illustrator 20.1.0, SVG Export Plug-In . SVG Version: 6.00 Build 0)  -->
<svg version="1.1" id="Layer_1" xmlns="http://www.w3.org/2000/svg" xmlns:xlink="http://www.w3.org/1999/xlink" x="0px" y="0px" viewBox="0 0 282.5 90.8" style="" xml:space="preserve">
<style type="text/css">
	.st0{fill:none;stroke:#767676;stroke-miterlimit:10;}
	.st1{fill:#767676;}
</style>
<circle class="st0" cx="45.6" cy="48.7" r="25.3"/>
<path class="st1" d="M56.9,59.6c0.4-0.4,0.5-0.9,0.2-1.4L46.9,34.7c-0.2-0.5-0.7-0.8-1.2-0.8c-0.5,0-1,0.3-1.2,0.8L33.9,58.2  c-0.2,0.5-0.1,1,0.2,1.4c0.3,0.3,0.6,0.4,1,0.4c0.2,0,0.3,0,0.5-0.1l10.1-3.7l9.9,3.7C56,60.1,56.6,60,56.9,59.6z M46.1,53.6  c-0.3-0.1-0.6-0.1-0.9,0l-7.6,2.8l8.1-18l7.9,18L46.1,53.6z"/>
<g>
	<path class="st1" d="M90.6,54.8V39.2h1.5v14.2h9.8v1.4H90.6z"/>
	<path class="st1" d="M120.9,50.6c-0.5,1-1.1,1.9-1.9,2.5s-1.7,1.2-2.7,1.5s-2.1,0.5-3.2,0.5s-2.2-0.2-3.2-0.5   c-1-0.3-1.9-0.8-2.7-1.5c-0.8-0.7-1.4-1.5-1.9-2.5c-0.5-1-0.7-2.2-0.7-3.6s0.2-2.6,0.7-3.6s1.1-1.9,1.9-2.5   c0.8-0.7,1.7-1.2,2.7-1.5c1-0.3,2.1-0.5,3.2-0.5s2.2,0.2,3.2,0.5s1.9,0.8,2.7,1.5s1.4,1.5,1.9,2.5c0.5,1,0.7,2.2,0.7,3.6   C121.7,48.4,121.4,49.5,120.9,50.6z M120.2,47c0-1.1-0.2-2.1-0.6-3s-0.9-1.5-1.6-2.1c-0.7-0.6-1.4-1-2.3-1.2   c-0.9-0.3-1.8-0.4-2.7-0.4s-1.8,0.1-2.7,0.4c-0.9,0.3-1.6,0.7-2.2,1.2c-0.6,0.6-1.2,1.3-1.6,2.1c-0.4,0.8-0.6,1.8-0.6,3   s0.2,2.1,0.6,3c0.4,0.8,0.9,1.5,1.6,2.1c0.7,0.6,1.4,1,2.3,1.2c0.9,0.3,1.7,0.4,2.7,0.4s1.8-0.1,2.7-0.4c0.9-0.3,1.6-0.7,2.3-1.2   c0.7-0.6,1.2-1.3,1.6-2.1C120,49.1,120.2,48.1,120.2,47L120.2,47z"/>
	<path class="st1" d="M141.6,43.1c-0.4-0.5-0.8-0.9-1.1-1.3c-0.4-0.4-0.7-0.7-1.1-0.9c-0.4-0.2-0.8-0.4-1.3-0.5   c-0.5-0.1-1-0.2-1.6-0.2c-0.7,0-1.5,0.1-2.3,0.3c-0.8,0.2-1.6,0.6-2.3,1.1c-0.7,0.5-1.3,1.2-1.7,2.1c-0.4,0.9-0.7,1.9-0.7,3.2   c0,1.1,0.2,2,0.5,2.9c0.4,0.8,0.9,1.5,1.5,2.1c0.6,0.6,1.4,1,2.2,1.3c0.9,0.3,1.8,0.4,2.7,0.4c0.8,0,1.6-0.1,2.4-0.3   c0.8-0.2,1.6-0.5,2.2-0.9v-3.7h-6v-1.4h7.4v5.8c-0.5,0.4-1.1,0.7-1.6,0.9c-0.5,0.2-1,0.4-1.5,0.6c-0.5,0.2-1,0.3-1.5,0.3   c-0.5,0.1-1.1,0.1-1.6,0.1c-1.1,0-2.2-0.2-3.2-0.5c-1-0.4-1.9-0.9-2.7-1.6c-0.8-0.7-1.4-1.5-1.8-2.5c-0.5-1-0.7-2.2-0.7-3.4   c0-1.5,0.3-2.7,0.8-3.8c0.5-1,1.2-1.9,2-2.5c0.8-0.6,1.7-1.1,2.7-1.4c1-0.3,1.9-0.4,2.8-0.4c0.8,0,1.5,0.1,2.1,0.2   c0.6,0.1,1.2,0.4,1.7,0.7s1,0.6,1.4,1.1c0.4,0.4,0.9,0.9,1.3,1.5L141.6,43.1z"/>
	<path class="st1" d="M164.9,50.6c-0.5,1-1.1,1.9-1.9,2.5s-1.7,1.2-2.7,1.5s-2.1,0.5-3.2,0.5s-2.2-0.2-3.2-0.5   c-1-0.3-1.9-0.8-2.7-1.5c-0.8-0.7-1.4-1.5-1.9-2.5c-0.5-1-0.7-2.2-0.7-3.6s0.2-2.6,0.7-3.6s1.1-1.9,1.9-2.5   c0.8-0.7,1.7-1.2,2.7-1.5c1-0.3,2.1-0.5,3.2-0.5s2.2,0.2,3.2,0.5s1.9,0.8,2.7,1.5s1.4,1.5,1.9,2.5c0.5,1,0.7,2.2,0.7,3.6   C165.7,48.4,165.4,49.5,164.9,50.6z M164.2,47c0-1.1-0.2-2.1-0.6-3s-0.9-1.5-1.6-2.1c-0.7-0.6-1.4-1-2.3-1.2   c-0.9-0.3-1.8-0.4-2.7-0.4s-1.8,0.1-2.7,0.4c-0.9,0.3-1.6,0.7-2.2,1.2c-0.6,0.6-1.2,1.3-1.6,2.1c-0.4,0.8-0.6,1.8-0.6,3   s0.2,2.1,0.6,3c0.4,0.8,0.9,1.5,1.6,2.1c0.7,0.6,1.4,1,2.3,1.2c0.9,0.3,1.7,0.4,2.7,0.4s1.8-0.1,2.7-0.4c0.9-0.3,1.6-0.7,2.3-1.2   c0.7-0.6,1.2-1.3,1.6-2.1C164,49.1,164.2,48.1,164.2,47L164.2,47z"/>
	<path class="st1" d="M195.4,54.8v-7.5h-10.8v7.5h-1.5V39.2h1.5v6.8h10.8v-6.8h1.5v15.7H195.4z"/>
	<path class="st1" d="M204,54.8V39.2h10.6v1.4h-9.2v5.4h7.4v1.4h-7.4v6h9.5v1.4H204z"/>
	<path class="st1" d="M234.2,54.8l-6.5-6.4h-4.8v6.4h-1.5V39.2h5.4c2.6,0,4.6,0.4,5.8,1.2s1.9,1.9,1.9,3.4c0,0.6-0.1,1.2-0.4,1.7   c-0.3,0.5-0.6,1-1.1,1.4c-0.4,0.4-1,0.7-1.6,1c-0.6,0.3-1.3,0.4-2,0.6l6.7,6.5H234.2z M232.9,42.6c-0.1-0.4-0.4-0.7-0.9-1   c-0.5-0.3-1.1-0.6-1.9-0.7c-0.8-0.2-2-0.3-3.4-0.3h-3.8v6.5h5.2c0.9,0,1.6-0.1,2.2-0.3c0.6-0.2,1.2-0.5,1.6-0.8s0.7-0.7,0.9-1.1   c0.2-0.4,0.3-0.8,0.3-1.2C233.1,43.3,233,43,232.9,42.6z"/>
	<path class="st1" d="M242.1,54.8V39.2h10.6v1.4h-9.2v5.4h7.4v1.4h-7.4v6h9.5v1.4H242.1z"/>
</g>
</svg>