<?xml version="1.0" standalone="no"?>
<!DOCTYPE svg PUBLIC "-//W3C//DTD SVG 20010904//EN"
 "http://www.w3.org/TR/2001/REC-SVG-20010904/DTD/svg10.dtd">
<svg version="1.0" xmlns="http://www.w3.org/2000/svg"
 width="512.000000pt" height="512.000000pt" viewBox="0 0 512.000000 512.000000"
 preserveAspectRatio="xMidYMid meet">
<metadata>
Created by potrace 1.11, written by Peter Selinger 2001-2013
</metadata>
<g transform="translate(0.000000,512.000000) scale(0.100000,-0.100000)"
fill="#000000" stroke="none">
<path d="M2480 4788 c0 -7 0 -367 0 -800 l0 -788 -145 0 c-141 0 -146 1 -155
23 -28 64 -240 609 -240 615 0 4 -6 18 -13 32 -27 53 -48 120 -41 131 4 7 3 9
-2 6 -6 -3 -45 85 -89 196 -93 238 -146 371 -151 376 -4 5 -144 -51 -144 -58
0 -6 254 -659 270 -696 25 -55 240 -608 240 -617 0 -4 -63 -8 -140 -8 l-139 0
15 -42 c8 -23 12 -48 10 -55 -3 -7 -2 -13 3 -13 5 0 11 -10 14 -22 2 -13 25
-104 50 -203 41 -163 59 -242 73 -330 3 -16 7 -41 10 -55 2 -14 7 -63 10 -110
7 -111 -9 -162 -125 -385 -152 -292 -166 -318 -195 -385 -58 -131 -108 -273
-122 -343 -2 -12 -9 -47 -16 -77 -13 -60 -17 -305 -6 -385 24 -180 126 -352
250 -423 93 -53 88 -52 858 -52 771 0 771 0 860 53 121 71 218 233 247 412 16
97 9 335 -12 434 -19 90 -65 231 -100 308 -8 17 -15 34 -15 38 0 4 -23 52 -50
107 -28 55 -47 105 -43 111 3 7 2 9 -2 4 -10 -9 -165 282 -212 398 -30 74 -32
87 -28 170 2 50 8 119 14 155 6 36 11 69 11 73 0 5 3 6 8 4 4 -3 7 16 8 42 1
44 83 383 122 506 l19 60 -138 3 c-77 1 -139 6 -139 10 0 5 18 53 39 108 22
54 65 164 95 244 31 80 61 154 65 165 5 11 17 40 26 65 9 25 23 59 30 75 7 17
52 129 99 250 47 121 101 261 121 310 36 91 38 115 11 115 -9 0 -39 11 -68 23
l-53 24 -24 -61 c-37 -99 -211 -540 -233 -594 -6 -15 -12 -31 -14 -37 -1 -5
-29 -77 -62 -160 -33 -82 -90 -226 -126 -320 -37 -93 -71 -180 -76 -192 -9
-22 -14 -23 -155 -23 l-145 0 0 693 c0 380 0 740 0 800 l0 107 -80 0 c-57 0
-80 -4 -80 -12z m-373 -1818 c14 -36 41 -105 60 -155 19 -49 39 -99 44 -110 5
-11 56 -141 115 -290 58 -148 107 -272 110 -274 2 -2 27 6 55 18 64 26 76 26
130 1 24 -11 49 -20 55 -20 6 0 23 30 37 68 14 37 32 81 38 97 7 17 13 32 14
35 1 3 7 19 14 35 6 17 59 152 117 300 58 149 110 279 115 290 5 11 13 32 18
47 9 25 14 26 75 27 41 0 66 -4 66 -11 0 -5 -11 -51 -25 -102 -13 -50 -26
-102 -29 -116 -2 -14 -9 -45 -15 -70 -5 -25 -12 -58 -16 -75 -55 -292 -56
-411 -5 -531 l18 -42 -41 -16 c-202 -76 -599 -95 -862 -41 -124 26 -177 46
-169 64 42 95 48 128 47 246 -1 130 -26 285 -88 541 -19 78 -35 145 -35 149 0
3 30 5 66 3 l65 -3 26 -65z m372 -217 l0 -288 -61 150 c-33 83 -64 161 -68
175 -5 14 -29 76 -53 138 l-45 112 114 0 114 0 -1 -287z m315 100 c-40 -104
-91 -233 -113 -288 l-40 -100 0 288 -1 287 114 0 113 0 -73 -187z m-221 -1011
c40 2 79 7 88 12 14 6 63 -87 288 -533 149 -297 271 -545 271 -551 0 -5 -30
-25 -67 -44 l-68 -34 -222 444 -223 444 0 -430 0 -430 -80 0 -80 0 -2 425 -3
425 -218 -435 c-120 -239 -222 -435 -228 -435 -5 0 -36 14 -69 30 -42 21 -60
36 -60 49 0 11 3 21 8 23 4 2 126 242 272 535 l265 531 28 -15 c20 -10 51 -13
100 -11z"/>
</g>
</svg>
